<svg width="41" height="41" viewBox="0 0 41 41" fill="none" xmlns="http://www.w3.org/2000/svg">
<circle cx="20.5" cy="20.5" r="20.5" fill="white"/>
<path fill-rule="evenodd" clip-rule="evenodd" d="M24.3302 10C24.4003 12.5263 22.5936 14.2789 20.7891 14.1689C20.4917 12.1529 22.5934 10 24.3302 10ZM13 20.2715C13 23.2113 15.3391 28.9837 18.1668 29H18.1853C18.8883 29 19.5081 28.7687 20.0559 28.5643L20.0607 28.5625C20.4624 28.4119 20.8418 28.27 21.1419 28.27C21.7339 28.27 22.0921 28.4222 22.5074 28.5989L22.5076 28.5989C22.918 28.7734 23.3833 28.9712 24.0414 28.9712C26.7317 28.9712 28.5843 23.987 28.5843 23.7549C28.5843 23.4 28.314 23.2374 28.0524 23.0801L28.051 23.0792L28.0502 23.0787C27.4563 22.7214 26.2218 21.9787 26.2218 20.0487C26.2218 18.4186 27.3125 17.5956 27.9105 17.1444L27.9108 17.1442L28.3293 16.8284L28.0385 16.3914C26.7969 14.5268 24.7318 14.3774 24.0507 14.3774H24.0453C23.1331 14.3774 22.3498 14.6888 21.7203 14.9394L21.7076 14.9444C21.4156 15.0601 21.0888 15.1895 20.949 15.1895C20.712 15.1895 20.2858 15.0329 19.8737 14.8812C19.2845 14.6638 18.6164 14.4181 17.9907 14.4181C16.6024 14.4181 13 15.4694 13 20.2715Z" fill="black"/>
</svg>
