<svg width="18" height="22" viewBox="0 0 18 22" fill="none" xmlns="http://www.w3.org/2000/svg">
<path fill-rule="evenodd" clip-rule="evenodd" d="M12.5382 8.87029C11.528 9.88062 10.2917 10.3927 8.86389 10.3927C7.43645 10.3927 6.20028 9.88046 5.18995 8.87046C4.17962 7.86029 3.66737 6.62412 3.66737 5.19619C3.66737 3.76859 4.17962 2.53242 5.18978 1.52225C6.19995 0.51208 7.43596 0 8.86389 0C10.2915 0 11.5277 0.51208 12.538 1.52208C13.5483 2.53258 14.0604 3.76875 14.0604 5.19619C14.0604 6.62412 13.5483 7.86012 12.5382 8.87029ZM17.7816 15.2268C17.8683 15.711 17.9272 16.1696 17.9564 16.59C17.9852 17.0008 17.9998 17.4296 18 17.8643C18 18.9911 17.642 19.903 16.9358 20.5749C16.2384 21.2385 15.3161 21.575 14.1942 21.575H3.80579C2.68385 21.575 1.76125 21.2384 1.06399 20.5749C0.358012 19.9025 0 18.9907 0 17.8645C0 17.4318 0.0144851 17.0033 0.043126 16.5905C0.0722607 16.1691 0.131189 15.7104 0.217934 15.2268C0.305503 14.7389 0.418256 14.2778 0.553066 13.8563C0.69265 13.4202 0.882272 12.9901 1.1165 12.5778C1.35946 12.15 1.64537 11.7775 1.96585 11.4707C2.30148 11.1495 2.71216 10.8916 3.18655 10.7038C3.65945 10.5165 4.18355 10.4215 4.74452 10.4215C4.96476 10.4215 5.17792 10.5119 5.58877 10.7797C5.84571 10.9471 6.142 11.138 6.46939 11.3472C6.75169 11.5273 7.13455 11.696 7.60696 11.8486C8.06884 11.9979 8.53714 12.0736 8.99951 12.0736C9.46188 12.0736 9.93034 11.9979 10.3917 11.8486C10.8646 11.6959 11.2475 11.5271 11.5301 11.3471C11.8606 11.1359 12.1568 10.9449 12.4099 10.7798C12.8213 10.512 13.0343 10.4217 13.2545 10.4217C13.8153 10.4217 14.3396 10.5165 14.8126 10.7036C15.2873 10.8918 15.6979 11.1497 16.0332 11.4705C16.3538 11.7772 16.6396 12.1498 16.8828 12.5778C17.1172 12.9901 17.3069 13.4204 17.4463 13.8561C17.5812 14.2777 17.694 14.7389 17.7816 15.2268Z" fill="#38C9BA"/>
<path fill-rule="evenodd" clip-rule="evenodd" d="M12.5382 8.87029C11.528 9.88062 10.2917 10.3927 8.86389 10.3927C7.43645 10.3927 6.20028 9.88046 5.18995 8.87046C4.17962 7.86029 3.66737 6.62412 3.66737 5.19619C3.66737 3.76859 4.17962 2.53242 5.18978 1.52225C6.19995 0.51208 7.43596 0 8.86389 0C10.2915 0 11.5277 0.51208 12.538 1.52208C13.5483 2.53258 14.0604 3.76875 14.0604 5.19619C14.0604 6.62412 13.5483 7.86012 12.5382 8.87029ZM17.7816 15.2268C17.8683 15.711 17.9272 16.1696 17.9564 16.59C17.9852 17.0008 17.9998 17.4296 18 17.8643C18 18.9911 17.642 19.903 16.9358 20.5749C16.2384 21.2385 15.3161 21.575 14.1942 21.575H3.80579C2.68385 21.575 1.76125 21.2384 1.06399 20.5749C0.358012 19.9025 0 18.9907 0 17.8645C0 17.4318 0.0144851 17.0033 0.043126 16.5905C0.0722607 16.1691 0.131189 15.7104 0.217934 15.2268C0.305503 14.7389 0.418256 14.2778 0.553066 13.8563C0.69265 13.4202 0.882272 12.9901 1.1165 12.5778C1.35946 12.15 1.64537 11.7775 1.96585 11.4707C2.30148 11.1495 2.71216 10.8916 3.18655 10.7038C3.65945 10.5165 4.18355 10.4215 4.74452 10.4215C4.96476 10.4215 5.17792 10.5119 5.58877 10.7797C5.84571 10.9471 6.142 11.138 6.46939 11.3472C6.75169 11.5273 7.13455 11.696 7.60696 11.8486C8.06884 11.9979 8.53714 12.0736 8.99951 12.0736C9.46188 12.0736 9.93034 11.9979 10.3917 11.8486C10.8646 11.6959 11.2475 11.5271 11.5301 11.3471C11.8606 11.1359 12.1568 10.9449 12.4099 10.7798C12.8213 10.512 13.0343 10.4217 13.2545 10.4217C13.8153 10.4217 14.3396 10.5165 14.8126 10.7036C15.2873 10.8918 15.6979 11.1497 16.0332 11.4705C16.3538 11.7772 16.6396 12.1498 16.8828 12.5778C17.1172 12.9901 17.3069 13.4204 17.4463 13.8561C17.5812 14.2777 17.694 14.7389 17.7816 15.2268Z" fill="white"/>
</svg>
