<svg width="23" height="23" viewBox="0 0 23 23" fill="none" xmlns="http://www.w3.org/2000/svg">
<path fill-rule="evenodd" clip-rule="evenodd" d="M3 7.21325C3 3.16815 6.86544 0 11.5 0C16.1869 0 20 3.23587 20 7.21325C20 8.71304 19.4597 10.1545 18.4364 11.3821L12.1505 19.6981C11.8475 20.1002 11.1531 20.101 10.8495 19.6981L4.59074 11.4103C3.54493 10.1244 3 8.75217 3 7.21325ZM6.12693 8.94999C6.04232 8.85999 6.00001 8.72499 6.00001 8.63499C6.00001 8.54499 6.04232 8.40999 6.12693 8.31999L6.71924 7.68999C6.88847 7.50999 7.14232 7.50999 7.31155 7.68999L7.35386 7.73499L9.68078 10.39C9.76539 10.48 9.89232 10.48 9.97693 10.39L15.6462 4.13499H15.6885C15.8577 3.95499 16.1115 3.95499 16.2808 4.13499L16.8731 4.76499C17.0423 4.94499 17.0423 5.21499 16.8731 5.39499L10.1039 12.865C10.0192 12.955 9.93463 13 9.8077 13C9.68078 13 9.59616 12.955 9.51155 12.865L6.21155 9.08499L6.12693 8.94999ZM13.633 20.6465L17.4935 15C20.8998 15.7355 23 17.0843 23 18.6965C23 21.492 17.0748 23 11.5 23C5.92521 23 0 21.492 0 18.6965C0 17.0855 2.09729 15.7374 5.49945 15.0015L9.36621 20.6479C10.3607 22.0993 12.6337 22.1041 13.633 20.6465Z" fill="white"/>
</svg>
