<svg width="29" height="25" viewBox="0 0 29 25" fill="none" xmlns="http://www.w3.org/2000/svg">
<path d="M23.1274 0.727295H6.23646C2.99818 0.727295 0.36377 3.3617 0.36377 6.59999V15.6703C0.36377 18.2543 2.06025 20.5048 4.51857 21.2251L7.35485 24.0616C7.51237 24.2189 7.72561 24.3074 7.94824 24.3074C8.17065 24.3074 8.3841 24.2189 8.54141 24.0616L11.1433 21.4596H23.1274C26.3657 21.4596 29.0001 18.8251 29.0001 15.5869V6.59999C29.0001 3.3617 26.3657 0.727295 23.1274 0.727295ZM8.51606 12.5762C8.51606 12.1128 8.89163 11.7373 9.35502 11.7373H20.0089C20.4723 11.7373 20.8478 12.1128 20.8478 12.5762C20.8478 13.0396 20.4723 13.4152 20.0089 13.4152H9.35502C8.89163 13.4152 8.51606 13.0396 8.51606 12.5762ZM20.0089 10.4496H9.35502C8.89163 10.4496 8.51606 10.074 8.51606 9.61062C8.51606 9.14744 8.89163 8.77166 9.35502 8.77166H20.0089C20.4723 8.77166 20.8478 9.14744 20.8478 9.61062C20.8478 10.074 20.4723 10.4496 20.0089 10.4496Z" fill="white"/>
</svg>
