<svg width="41" height="41" viewBox="0 0 41 41" fill="none" xmlns="http://www.w3.org/2000/svg">
    <circle cx="20.5" cy="20.5" r="20.5" fill="white" />
    <path fill-rule="evenodd" clip-rule="evenodd"
        d="M29.64 21.2042C29.64 20.566 29.5827 19.9524 29.4764 19.3633H21V22.8446H25.8436C25.635 23.9696 25.0009 24.9228 24.0477 25.561V27.8192H26.9564C28.6582 26.2524 29.64 23.9451 29.64 21.2042Z"
        fill="#4285F4" />
    <path fill-rule="evenodd" clip-rule="evenodd"
        d="M20.9998 30C23.4298 30 25.467 29.1941 26.9561 27.8195L24.0475 25.5613C23.2416 26.1013 22.2107 26.4204 20.9998 26.4204C18.6557 26.4204 16.6716 24.8372 15.9638 22.71H12.957V25.0418C14.4379 27.9831 17.4816 30 20.9998 30Z"
        fill="#34A853" />
    <path fill-rule="evenodd" clip-rule="evenodd"
        d="M15.9641 22.7098C15.7841 22.1698 15.6818 21.593 15.6818 20.9998C15.6818 20.4066 15.7841 19.8298 15.9641 19.2898V16.958H12.9573C12.3477 18.173 12 19.5476 12 20.9998C12 22.4521 12.3477 23.8266 12.9573 25.0416L15.9641 22.7098Z"
        fill="#FBBC05" />
    <path fill-rule="evenodd" clip-rule="evenodd"
        d="M20.9998 15.5795C22.3211 15.5795 23.5075 16.0336 24.4402 16.9255L27.0216 14.3441C25.4629 12.8918 23.4257 12 20.9998 12C17.4816 12 14.4379 14.0168 12.957 16.9582L15.9638 19.29C16.6716 17.1627 18.6557 15.5795 20.9998 15.5795Z"
        fill="#EA4335" />
</svg>
