<svg width="23" height="22" viewBox="0 0 23 22" fill="none" xmlns="http://www.w3.org/2000/svg">
<path d="M22.3822 9.52752C22.3816 9.52701 22.3811 9.52651 22.3806 9.52601L12.9975 0.590937C12.5975 0.209903 12.0658 0 11.5001 0C10.9345 0 10.4028 0.209736 10.0027 0.590769L0.624431 9.52133C0.621272 9.52434 0.618113 9.52752 0.614954 9.53052C-0.206357 10.3172 -0.204953 11.5935 0.618991 12.3781C0.995425 12.7367 1.4926 12.9445 2.02417 12.9662C2.04576 12.9682 2.06752 12.9692 2.08945 12.9692H2.46343V19.5449C2.46343 20.8461 3.57519 21.9048 4.94193 21.9048H8.61292C8.98496 21.9048 9.28681 21.6175 9.28681 21.263V16.1077C9.28681 15.5139 9.79399 15.0309 10.4175 15.0309H12.5828C13.2063 15.0309 13.7135 15.5139 13.7135 16.1077V21.263C13.7135 21.6175 14.0151 21.9048 14.3874 21.9048H18.0584C19.4251 21.9048 20.5369 20.8461 20.5369 19.5449V12.9692H20.8836C21.4491 12.9692 21.9808 12.7595 22.3811 12.3784C23.2059 11.5925 23.2063 10.314 22.3822 9.52752Z" fill="white"/>
<path d="M22.3822 9.52752C22.3816 9.52701 22.3811 9.52651 22.3806 9.52601L12.9975 0.590937C12.5975 0.209903 12.0658 0 11.5001 0C10.9345 0 10.4028 0.209736 10.0027 0.590769L0.624431 9.52133C0.621272 9.52434 0.618113 9.52752 0.614954 9.53052C-0.206357 10.3172 -0.204953 11.5935 0.618991 12.3781C0.995425 12.7367 1.4926 12.9445 2.02417 12.9662C2.04576 12.9682 2.06752 12.9692 2.08945 12.9692H2.46343V19.5449C2.46343 20.8461 3.57519 21.9048 4.94193 21.9048H8.61292C8.98496 21.9048 9.28681 21.6175 9.28681 21.263V16.1077C9.28681 15.5139 9.79399 15.0309 10.4175 15.0309H12.5828C13.2063 15.0309 13.7135 15.5139 13.7135 16.1077V21.263C13.7135 21.6175 14.0151 21.9048 14.3874 21.9048H18.0584C19.4251 21.9048 20.5369 20.8461 20.5369 19.5449V12.9692H20.8836C21.4491 12.9692 21.9808 12.7595 22.3811 12.3784C23.2059 11.5925 23.2063 10.314 22.3822 9.52752Z" fill="#38C9BA"/>
</svg>
