<svg width="29" height="33" viewBox="0 0 29 33" fill="none" xmlns="http://www.w3.org/2000/svg">
<path fill-rule="evenodd" clip-rule="evenodd" d="M13.28 7.20065L12.2064 7.27223C11.4977 7.31904 10.8877 6.77944 10.8302 6.07213L10.5946 2.43155C10.5478 1.72289 11.0874 1.11289 11.7947 1.05542L12.8684 0.983848C13.577 0.937036 14.187 1.47663 14.2445 2.18394L14.4801 5.82452C14.5283 6.54384 13.9887 7.15384 13.28 7.20065ZM3.91064 10.3845L4.82742 9.84563C5.44081 9.47528 5.65495 8.69012 5.28596 8.08739L3.45534 4.93118C3.097 4.3271 2.31319 4.1236 1.6971 4.47264L0.76966 5.01286C0.165577 5.3712 -0.0379161 6.15501 0.311123 6.7711L2.1524 9.92596C2.51074 10.53 3.29455 10.7335 3.91064 10.3845ZM22.739 11.4725C21.0312 11.4725 19.6349 12.4607 19.6349 13.6637V12.3855C19.6349 11.0643 18.2385 9.99022 16.5307 9.99022C14.8229 9.99022 13.4265 11.0643 13.4265 12.3855V13.6637C13.4265 12.4499 12.0302 11.4725 10.3224 11.4725C8.61455 11.4725 7.21821 12.4607 7.21821 13.6637V14.9096C7.21821 13.814 5.82187 12.9225 4.11405 12.9225C2.38474 12.9333 0.9884 13.8248 0.9884 14.9204V25.1781C0.9884 26.2737 2.38474 27.1652 4.09256 27.1652C5.80039 27.1652 7.19673 26.2737 7.19673 25.1781V25.8762C7.19673 27.09 8.59306 28.0674 10.3009 28.0674C12.0087 28.0674 13.4051 27.0792 13.4051 25.8762V25.6829C13.4051 27.004 14.8014 28.0781 16.5092 28.0781C18.217 28.0781 19.6134 27.004 19.6134 25.6829V25.8762C19.6134 27.09 21.0097 28.0674 22.7175 28.0674C24.4254 28.0674 25.8217 27.0792 25.8217 25.8762V13.6744C25.8432 12.4607 24.4469 11.4725 22.739 11.4725ZM27.1105 23.5347L26.7453 27.2511C26.7453 29.2275 24.7582 30.0223 22.7711 30.0223C21.6004 30.0223 20.5585 29.4638 19.9033 28.5937C19.2481 29.4638 18.2062 30.0223 17.0354 30.0223C16.1117 30.0223 15.2632 29.6678 14.6294 29.0878C14.2965 29.4638 14.0924 29.9579 14.0924 30.4949C14.0924 31.6764 15.0483 32.6324 16.2298 32.6324H24.2749C26.4553 32.6324 28.2276 30.8601 28.2276 28.6797C28.2276 28.0997 28.2276 27.6378 28.002 26.8859L27.1105 23.5347ZM21.6067 8.81939L22.6253 9.16627C23.3039 9.39397 24.0372 9.03002 24.2543 8.35277L25.4273 4.89037C25.655 4.21176 25.2924 3.48911 24.6138 3.26141L23.5952 2.91454C22.9166 2.68684 22.1939 3.04943 21.9662 3.72804L20.7932 7.19044C20.5655 7.86905 20.9281 8.5917 21.6067 8.81939Z" fill="white"/>
</svg>
