<svg width="19" height="23" viewBox="0 0 19 23" fill="none" xmlns="http://www.w3.org/2000/svg">
<path fill-rule="evenodd" clip-rule="evenodd" d="M16.15 11.1986C16.15 13.0786 16.9736 14.8532 18.41 16.0674C18.7881 16.3913 19 16.8511 19 17.3375C19 18.2542 18.2542 19 17.3375 19H1.6625C0.74575 19 0 18.2542 0 17.3375C0 16.8511 0.21185 16.3913 0.5814 16.0749C2.02635 14.8532 2.85 13.0786 2.85 11.1986V8.55C2.85 5.20695 5.33235 2.4396 8.55 1.976V0.95C8.55 0.42465 8.9756 0 9.5 0C10.0244 0 10.45 0.42465 10.45 0.95V1.976C13.6667 2.4396 16.15 5.20695 16.15 8.55V11.1986ZM12.9902 19.95C12.6596 21.5735 11.2204 22.8 9.49991 22.8C7.77946 22.8 6.34021 21.5735 6.00961 19.95H12.9902Z" fill="#38C9BA"/>
</svg>
