<svg width="13" height="18" viewBox="0 0 13 18" fill="none" xmlns="http://www.w3.org/2000/svg">
    <path fill-rule="evenodd" clip-rule="evenodd"
        d="M0 2C0 0.89543 0.895431 0 2 0H11C12.1046 0 13 0.895431 13 2V16C13 17.1046 12.1046 18 11 18H2C0.89543 18 0 17.1046 0 16V2ZM5 15.5C5 14.6716 5.67157 14 6.5 14C7.32843 14 8 14.6716 8 15.5C8 16.3284 7.32843 17 6.5 17C5.67157 17 5 16.3284 5 15.5ZM4 2C2.89543 2 2 2.89543 2 4V11C2 12.1046 2.89543 13 4 13H9C10.1046 13 11 12.1046 11 11V4C11 2.89543 10.1046 2 9 2H4Z"
        fill="white" />
</svg>
