<svg width="14" height="14" viewBox="0 0 14 14" fill="none" xmlns="http://www.w3.org/2000/svg">
    <circle cx="7" cy="7" r="7" fill="#38C9BA" />
    <path
        d="M7.09117 6.07356L5.35728 4.33967C5.16179 4.14419 4.85581 4.14419 4.66033 4.33967L4.43084 4.56916C4.23535 4.76465 4.23535 5.07063 4.43084 5.26611L6.16473 7L4.43084 8.73389C4.23535 8.92937 4.23535 9.23535 4.43084 9.43084L4.66033 9.66033C4.85581 9.85581 5.16179 9.85581 5.35728 9.66033L7.09117 7.92644L8.82506 9.66033C9.02054 9.85581 9.32652 9.85581 9.52201 9.66033L9.75149 9.43084C9.94698 9.23535 9.94698 8.92937 9.75149 8.73389L8.01761 7L9.75149 5.26611C9.94698 5.07063 9.94698 4.76465 9.75149 4.56916L9.52201 4.33967C9.32652 4.14419 9.02054 4.14419 8.82506 4.33967L7.09117 6.07356Z"
        fill="#242A38" />
</svg>
