<svg width="32" height="31" viewBox="0 0 32 31" fill="none" xmlns="http://www.w3.org/2000/svg">
<path fill-rule="evenodd" clip-rule="evenodd" d="M24.7946 22.0998L20.1318 17.4312C21.0161 16.0041 21.5294 14.3172 21.5294 12.507C21.5294 7.38542 17.4336 3.23413 12.3814 3.23413C7.32928 3.23413 3.23389 7.38542 3.23389 12.507C3.23389 17.6287 7.32909 21.7796 12.3814 21.7796C14.3249 21.7796 16.125 21.1637 17.6063 20.1171C17.6063 20.1171 21.5605 24.2559 22.0996 24.7949C22.6386 25.3339 23.624 25.9656 24.7946 24.7949C25.9653 23.6242 25.5094 22.8243 24.7946 22.0998ZM6.19813 12.5073C6.19813 15.9691 8.96663 18.7753 12.3814 18.7753C15.7964 18.7753 18.5647 15.9691 18.5647 12.5073C18.5647 9.04559 15.7964 6.23916 12.3814 6.23916C8.96663 6.23916 6.19813 9.04559 6.19813 12.5073Z" fill="#38C9BA"/>
<path fill-rule="evenodd" clip-rule="evenodd" d="M24.7946 22.0998L20.1318 17.4312C21.0161 16.0041 21.5294 14.3172 21.5294 12.507C21.5294 7.38542 17.4336 3.23413 12.3814 3.23413C7.32928 3.23413 3.23389 7.38542 3.23389 12.507C3.23389 17.6287 7.32909 21.7796 12.3814 21.7796C14.3249 21.7796 16.125 21.1637 17.6063 20.1171C17.6063 20.1171 21.5605 24.2559 22.0996 24.7949C22.6386 25.3339 23.624 25.9656 24.7946 24.7949C25.9653 23.6242 25.5094 22.8243 24.7946 22.0998ZM6.19813 12.5073C6.19813 15.9691 8.96663 18.7753 12.3814 18.7753C15.7964 18.7753 18.5647 15.9691 18.5647 12.5073C18.5647 9.04559 15.7964 6.23916 12.3814 6.23916C8.96663 6.23916 6.19813 9.04559 6.19813 12.5073Z" fill="white"/>
</svg>
