<svg width="106" height="39" viewBox="0 0 106 39" fill="none" xmlns="http://www.w3.org/2000/svg">
    <g filter="url(#filter0_d)">
        <path fill-rule="evenodd" clip-rule="evenodd"
            d="M67.6054 3C74.4632 5.32303 79.4004 11.7923 79.4013 19.4175C79.4004 27.0451 74.4632 33.5157 67.6054 35.8369V30.8791C68.8866 30.2563 70.0482 29.4259 71.049 28.4286C73.3645 26.1152 74.7896 22.9447 74.79 19.4175C74.7896 15.8945 73.3645 12.7218 71.049 10.4107C70.0482 9.41331 68.8866 8.58241 67.6054 7.9597V3ZM56.5354 3V7.9597C55.2538 8.58241 54.0917 9.41331 53.0905 10.4107C50.7746 12.7218 49.3505 15.8945 49.3491 19.4175C49.3505 22.9447 50.7746 26.1152 53.0905 28.4286C54.0917 29.4259 55.2538 30.2563 56.5354 30.8791V35.8369C49.6764 33.5157 44.7413 27.0451 44.7394 19.4175C44.7413 11.7923 49.6764 5.32303 56.5354 3ZM16.624 7.89833L28.7696 7.92764L27.8122 11.4229H20.4834L18.8677 16.8899C20.5728 15.8445 23.1454 15.0378 24.8207 16.3227C26.6754 17.7561 25.868 20.7434 25.5387 22.1772L24.8207 24.8662C24.0134 27.7642 23.2954 30.1834 20.2742 31.2888C18.6883 31.8861 14.59 32.275 12.9748 30.9901C11.8678 30.0936 11.5384 29.3767 11.3894 28.1522C11.2994 27.1961 11.3293 26.4787 11.7481 24.8062H16.5043C16.2355 25.6725 15.9061 27.4948 16.4749 28.0028C16.7437 28.242 17.2222 28.2717 17.9108 28.1522C19.3163 27.8833 19.7957 25.8218 20.154 24.5378L20.6031 23.0137C20.6329 22.9244 21.4408 20.2358 20.9017 19.4886C20.6031 19.1006 20.0645 18.9215 19.5558 19.0108C18.9874 19.0709 18.4791 19.4886 18.0599 20.266C17.7309 20.8629 17.5218 21.6101 17.3718 22.0283H12.5261L16.624 7.89833ZM41.0163 7.89185C42.3569 8.37106 43.4884 9.21002 43.8756 10.5585C44.2332 11.7866 43.846 13.4043 43.2802 15.1424H38.5752C38.7838 14.3338 39.5574 12.0866 38.635 11.2775C38.0692 10.8277 37.2048 10.7078 36.4907 11.0377C35.2103 11.5472 34.4957 13.4043 34.4363 14.3935C34.3172 15.8918 34.972 16.371 36.8181 17.4792L37.4733 17.8987C39.945 19.5169 41.0765 20.7151 40.9277 23.232C40.7784 25.5986 39.945 29.2246 36.6989 30.8423C34.6446 31.8908 29.314 32.4895 27.1112 30.7224C25.7414 29.6436 25.503 28.4458 25.503 27.0974C25.503 25.5095 26.1879 24.4302 26.3076 23.8311H31.1902C30.4756 25.2393 29.9989 26.7675 31.0121 27.8164C31.5774 28.4458 32.6793 28.4757 33.4834 28.206C34.972 27.7259 35.687 26.2281 35.9249 24.8502C36.193 22.9922 35.6574 22.6931 33.5724 21.2545L32.8879 20.8047C30.5354 19.0974 29.6418 18.2888 29.582 16.0416C29.5528 14.5732 30.2076 10.7386 32.9774 8.88059C34.9121 7.56242 38.9916 7.17235 41.0163 7.89185ZM14.6141 7.89833C14.6745 7.89833 7.78386 31.6643 7.78386 31.6643H3L8.17513 13.6443L8.11469 13.5239C8.11469 13.5239 7.83963 13.7221 7.39335 14.0057L7.13357 14.1682C6.35295 14.6488 5.20846 15.2847 4.08338 15.6598L5.10586 11.9597C5.10586 11.9597 5.64092 11.6341 6.37983 11.1457L6.70802 10.9269C8.00652 10.0535 9.7275 8.80344 10.4023 7.89833H14.6141ZM97.0045 7.89833L95.9604 11.4485H89.5128L87.8709 16.9533H94.2887L93.2145 20.503H86.8264L83.4831 31.6643H78.8569L85.991 7.89833H97.0045ZM61.9796 11.7081C66.1892 11.7081 69.6016 15.1192 69.6016 19.3282C69.6016 23.5367 66.1892 26.9474 61.9796 26.9474C57.7705 26.9474 54.3576 23.5367 54.3576 19.3282C54.3576 15.1192 57.7705 11.7081 61.9796 11.7081ZM101.423 11.2091C101.304 11.0085 101.181 10.8174 101.054 10.636C100.926 10.4546 100.815 10.3105 100.719 10.2038C100.687 10.208 100.658 10.2102 100.631 10.2102H100.125V11.2091H99.7497V8.73101C99.8544 8.70966 99.9716 8.69259 100.101 8.67978C100.231 8.66697 100.353 8.66057 100.467 8.66057C100.854 8.66057 101.148 8.72674 101.351 8.85908C101.554 8.99141 101.655 9.19205 101.655 9.46099C101.655 9.61467 101.609 9.75234 101.518 9.87401C101.427 9.99567 101.293 10.0864 101.115 10.1462C101.152 10.1846 101.201 10.2433 101.262 10.3222C101.324 10.4012 101.389 10.4898 101.457 10.588C101.525 10.6862 101.593 10.7908 101.662 10.9017C101.73 11.0127 101.789 11.1152 101.839 11.2091H101.423ZM100.125 9.92203H100.467C100.58 9.92203 100.685 9.91563 100.781 9.90282C100.876 9.89002 100.959 9.86547 101.03 9.82918C101.101 9.7929 101.155 9.74487 101.194 9.68511C101.233 9.62534 101.252 9.5485 101.252 9.45459C101.252 9.36494 101.23 9.28917 101.187 9.22727C101.144 9.16537 101.087 9.11521 101.016 9.07679C100.946 9.03837 100.865 9.01062 100.774 8.99355C100.683 8.97647 100.587 8.96793 100.487 8.96793C100.419 8.96793 100.354 8.969 100.293 8.97113C100.231 8.97327 100.175 8.97647 100.125 8.98074V9.92203ZM103 9.94124C103 10.3084 102.936 10.6349 102.809 10.921C102.681 11.207 102.512 11.4492 102.3 11.6477C102.088 11.8462 101.843 11.9978 101.563 12.1024C101.283 12.207 100.99 12.2593 100.685 12.2593C100.38 12.2593 100.088 12.207 99.8077 12.1024C99.5278 11.9978 99.282 11.8462 99.0703 11.6477C98.8586 11.4492 98.689 11.207 98.5616 10.921C98.4341 10.6349 98.3704 10.3084 98.3704 9.94124C98.3704 9.57838 98.4341 9.25288 98.5616 8.96473C98.689 8.67658 98.8586 8.43432 99.0703 8.23795C99.282 8.04158 99.5278 7.8911 99.8077 7.78651C100.088 7.68192 100.38 7.62963 100.685 7.62963C100.99 7.62963 101.283 7.68192 101.563 7.78651C101.843 7.8911 102.088 8.04158 102.3 8.23795C102.512 8.43432 102.681 8.67658 102.809 8.96473C102.936 9.25288 103 9.57838 103 9.94124ZM102.597 9.94124C102.597 9.64669 102.549 9.37775 102.454 9.13442C102.358 8.89109 102.226 8.68298 102.058 8.51009C101.889 8.3372 101.688 8.2038 101.453 8.10988C101.219 8.01597 100.963 7.96901 100.685 7.96901C100.407 7.96901 100.151 8.01597 99.917 8.10988C99.6826 8.2038 99.4811 8.3372 99.3127 8.51009C99.1442 8.68298 99.0122 8.89109 98.9166 9.13442C98.821 9.37775 98.7732 9.64669 98.7732 9.94124C98.7732 10.2358 98.821 10.5047 98.9166 10.7481C99.0122 10.9914 99.1442 11.1995 99.3127 11.3724C99.4811 11.5453 99.6826 11.6798 99.917 11.7758C100.151 11.8719 100.407 11.9199 100.685 11.9199C100.963 11.9199 101.219 11.8719 101.453 11.7758C101.688 11.6798 101.889 11.5453 102.058 11.3724C102.226 11.1995 102.358 10.9914 102.454 10.7481C102.549 10.5047 102.597 10.2358 102.597 9.94124Z"
            fill="white" />
    </g>
    <defs>
        <filter id="filter0_d" x="0" y="0" width="106" height="38.8369" filterUnits="userSpaceOnUse"
            color-interpolation-filters="sRGB">
            <feFlood flood-opacity="0" result="BackgroundImageFix" />
            <feColorMatrix in="SourceAlpha" type="matrix"
                values="0 0 0 0 0 0 0 0 0 0 0 0 0 0 0 0 0 0 127 0" result="hardAlpha" />
            <feOffset />
            <feGaussianBlur stdDeviation="1.5" />
            <feColorMatrix type="matrix" values="0 0 0 0 0 0 0 0 0 0 0 0 0 0 0 0 0 0 0.3 0" />
            <feBlend mode="normal" in2="BackgroundImageFix" result="effect1_dropShadow" />
            <feBlend mode="normal" in="SourceGraphic" in2="effect1_dropShadow" result="shape" />
        </filter>
    </defs>
</svg>
